<mxfile host="app.diagrams.net" agent="Mozilla/5.0 (Windows NT 10.0; Win64; x64) AppleWebKit/537.36 (KHTML, like Gecko) Chrome/128.0.0.0 Safari/537.36 Edg/128.0.0.0" version="24.7.14">
  <diagram name="Page-1" id="wJkc486yKorWzy__111r">
    <mxGraphModel dx="1002" dy="565" grid="1" gridSize="10" guides="1" tooltips="1" connect="1" arrows="1" fold="1" page="1" pageScale="1" pageWidth="1654" pageHeight="2336" math="0" shadow="0">
      <root>
        <mxCell id="0" />
        <mxCell id="1" parent="0" />
        <mxCell id="X89F0w0ZCcd9p6oeTTbP-5" style="rounded=0;orthogonalLoop=1;jettySize=auto;html=1;exitX=0;exitY=0.5;exitDx=0;exitDy=0;" edge="1" parent="1" source="X89F0w0ZCcd9p6oeTTbP-2" target="X89F0w0ZCcd9p6oeTTbP-1">
          <mxGeometry relative="1" as="geometry" />
        </mxCell>
        <mxCell id="X89F0w0ZCcd9p6oeTTbP-8" value="extend" style="edgeLabel;html=1;align=center;verticalAlign=middle;resizable=0;points=[];" vertex="1" connectable="0" parent="X89F0w0ZCcd9p6oeTTbP-5">
          <mxGeometry x="-0.1632" y="-3" relative="1" as="geometry">
            <mxPoint as="offset" />
          </mxGeometry>
        </mxCell>
        <mxCell id="X89F0w0ZCcd9p6oeTTbP-6" style="rounded=0;orthogonalLoop=1;jettySize=auto;html=1;exitX=0;exitY=0.5;exitDx=0;exitDy=0;" edge="1" parent="1" source="X89F0w0ZCcd9p6oeTTbP-3" target="X89F0w0ZCcd9p6oeTTbP-1">
          <mxGeometry relative="1" as="geometry" />
        </mxCell>
        <mxCell id="X89F0w0ZCcd9p6oeTTbP-7" style="rounded=0;orthogonalLoop=1;jettySize=auto;html=1;exitX=0;exitY=0.5;exitDx=0;exitDy=0;" edge="1" parent="1" source="X89F0w0ZCcd9p6oeTTbP-4" target="X89F0w0ZCcd9p6oeTTbP-1">
          <mxGeometry relative="1" as="geometry" />
        </mxCell>
        <mxCell id="X89F0w0ZCcd9p6oeTTbP-1" value="Quản lý sách" style="ellipse;whiteSpace=wrap;html=1;" vertex="1" parent="1">
          <mxGeometry x="200" y="160" width="140" height="70" as="geometry" />
        </mxCell>
        <mxCell id="X89F0w0ZCcd9p6oeTTbP-2" value="Thêm sách" style="ellipse;whiteSpace=wrap;html=1;" vertex="1" parent="1">
          <mxGeometry x="470" y="70" width="140" height="70" as="geometry" />
        </mxCell>
        <mxCell id="X89F0w0ZCcd9p6oeTTbP-3" value="Cập nhật sách" style="ellipse;whiteSpace=wrap;html=1;" vertex="1" parent="1">
          <mxGeometry x="470" y="160" width="140" height="70" as="geometry" />
        </mxCell>
        <mxCell id="X89F0w0ZCcd9p6oeTTbP-4" value="Xóa sách" style="ellipse;whiteSpace=wrap;html=1;" vertex="1" parent="1">
          <mxGeometry x="470" y="260" width="140" height="70" as="geometry" />
        </mxCell>
        <mxCell id="X89F0w0ZCcd9p6oeTTbP-9" value="extend" style="edgeLabel;html=1;align=center;verticalAlign=middle;resizable=0;points=[];" vertex="1" connectable="0" parent="1">
          <mxGeometry x="416.75824361610626" y="194.99903354283293" as="geometry" />
        </mxCell>
        <mxCell id="X89F0w0ZCcd9p6oeTTbP-10" value="extend" style="edgeLabel;html=1;align=center;verticalAlign=middle;resizable=0;points=[];" vertex="1" connectable="0" parent="1">
          <mxGeometry x="399.99824361610627" y="259.99903354283293" as="geometry" />
        </mxCell>
      </root>
    </mxGraphModel>
  </diagram>
</mxfile>
